Coordinates
version=1
nRows=9
nColumns=24
inDegrees=yes

Units are S.I. units (second, meters, Newtons, ...)
Angles are in degrees.

endheader
time	pelvis_tilt	pelvis_list	pelvis_rotation	pelvis_tx	pelvis_ty	pelvis_tz	hip_flexion_r	hip_adduction_r	hip_rotation_r	knee_angle_r	ankle_angle_r	subtalar_angle_r	mtp_angle_r	hip_flexion_l	hip_adduction_l	hip_rotation_l	knee_angle_l	ankle_angle_l	subtalar_angle_l	mtp_angle_l	lumbar_extension	lumbar_bending	lumbar_rotation
      4.42500000	    -20.05335677	     10.55978869	     -6.20447505	     -0.73564913	     -0.03958636	     -0.27683307	     19.34067702	     -8.59528563	      2.29815919	    -57.76875056	    -16.10569615	    -13.25825434	   -148.65520572	     42.58132318	     13.12390069	      5.16355077	    -27.54552914	     15.68695248	     -0.21770204	    -77.44035751	     16.92247921	     -8.59778909	      9.36448282
      4.43000000	    -20.04359992	     10.60382973	     -6.26791307	     -0.72848745	     -0.03801742	     -0.27671709	     20.58921870	     -8.25120469	      2.74389248	    -59.28910599	    -14.35535695	    -14.86791539	   -146.72914849	     41.69547172	     13.09179814	      4.94885416	    -26.95948382	     16.48141479	      0.38989083	    -78.63478864	     16.89563484	     -8.59169175	      9.19615029
      4.43500000	    -20.00415069	     10.63751931	     -6.34363275	     -0.72133272	     -0.03637290	     -0.27657292	     21.79090696	     -7.87604528	      3.20881676	    -60.70336610	    -12.59397929	    -16.34998048	   -144.71713005	     40.75344849	     13.06513689	      4.78542479	    -26.32419034	     17.16274078	      0.88652696	    -79.67978281	     16.83787579	     -8.57495034	      9.03944302
      4.44000000	    -19.95062699	     10.65330845	     -6.42481854	     -0.71417245	     -0.03467451	     -0.27640719	     22.95282109	     -7.46493956	      3.68706205	    -61.99109876	    -10.89761016	    -17.72073572	   -142.84759185	     39.77260593	     13.04061805	      4.69066958	    -25.64777227	     17.72251673	      1.27630748	    -80.49008138	     16.76731864	     -8.54135750	      8.89285154
      4.44500000	    -19.88640366	     10.65411389	     -6.51650451	     -0.70692266	     -0.03290558	     -0.27619954	     24.05992602	     -7.02084244	      4.19327060	    -63.12666090	     -9.27763940	    -18.96482014	   -141.35014333	     38.73615381	     13.01397788	      4.65736349	    -24.90069629	     18.14584394	      1.56636338	    -80.97523562	     16.70576245	     -8.49074832	      8.77285503
      4.45000000	    -19.79574477	     10.64424616	     -6.61289519	     -0.69973098	     -0.03112449	     -0.27601705	     25.13290921	     -6.56880618	      4.69485908	    -64.16576578	     -7.77753098	    -20.10003284	   -140.10327603	     37.65943061	     13.00664643	      4.72590830	    -24.12374207	     18.45384172	      1.71328895	    -81.23865463	     16.60417514	     -8.42934325	      8.65788382
      4.45500000	    -19.70642087	     10.60237802	     -6.67536231	     -0.69252698	     -0.02934199	     -0.27586960	     26.17533493	     -6.10427036	      5.12525334	    -65.09937899	     -6.40575234	    -21.14120497	   -138.83936128	     36.55819641	     13.00846906	      4.90705696	    -23.30936125	     18.66174105	      1.74124425	    -81.38497632	     16.49925171	     -8.34658316	      8.50368918
      4.46000000	    -19.63808343	     10.52127015	     -6.76077888	     -0.68540499	     -0.02759459	     -0.27570257	     27.22317970	     -5.58523745	      5.56346194	    -65.88372477	     -5.22613553	    -22.23009385	   -138.62808541	     35.48561841	     12.96295360	      5.09251218	    -22.50143095	     18.80664587	      1.70688132	    -81.36271411	     16.40454036	     -8.21402050	      8.39581831
      4.46500000	    -19.49431337	     10.40908234	     -6.74664482	     -0.67813955	     -0.02577283	     -0.27567996	     28.12154044	     -5.13283647	      5.83907392	    -66.60318500	     -3.92225989	    -22.96080215	   -137.63222353	     34.26532235	     12.98373086	      5.50473786	    -21.60509367	     18.83169820	      1.53183654	    -81.21878231	     16.22918835	     -8.08981401	      8.16550872
